<?xml version="1.0" standalone="no"?><!DOCTYPE svg PUBLIC "-//W3C//DTD SVG 1.1//EN" "http://www.w3.org/Graphics/SVG/1.1/DTD/svg11.dtd"><svg class="icon" width="200px" height="200.00px" viewBox="0 0 1024 1024" version="1.1" xmlns="http://www.w3.org/2000/svg"><path d="M889 376.9c-2.7-61.1-37.1-110-80.2-114.4-14.6-34.2-40.7-57.4-70.7-59.1-15.9-28.5-40.4-46.9-68.1-46.9-47.9 0-86.7 54.9-86.7 122.7 0 66.1 37 119.8 83.2 122.4l0.3 0.6c-17.2 36.1-3.2 89.7 37.4 130.4 32.4 32.4 73.1 47.6 106.6 43.9 15.9 27.2 39.9 44.6 66.8 44.6 47.9 0 86.7-54.9 86.7-122.7 0.2-62.3-32.7-113.7-75.3-121.5z" fill="#D1D2D4" /><path d="M536.1 99.9c-86.9 0-168.1 25-236.9 68l-2.3-0.2c-0.1 0.6-0.1 1.2-0.1 1.8C171.7 248.9 88.3 388.7 88.3 547.7c0 246.9 200.9 447.8 447.8 447.8s447.8-200.9 447.8-447.8S783.1 99.9 536.1 99.9z m384.7 501.9C811.1 590.8 718 527.4 666.1 437c71.2-25.9 144.9-45.1 220.2-57.6 24.6 51 38.8 107.9 38.8 168.3 0 18.4-1.8 36.4-4.3 54.1z m-66.3-276.7c-72.8 13.4-144.1 32.9-213.2 58.3-12.5-35.1-19.7-72.9-19.7-112.3 0-33.8 5-66.8 14.8-98.6 89.5 23.8 166.3 78.7 218.1 152.6zM578.6 161.2c-10.4 35.5-15.8 72.2-15.8 109.8 0 47.1 8.6 92.1 23.8 133.9-64.6 27.1-126.9 59.6-186.5 96.7-31.2-79.6-48.3-165.4-48.3-253.7 0-14.4 0.6-28.8 1.5-43.2 54.6-29.2 116.9-45.9 183-45.9 14.2 0 28.3 0.9 42.3 2.4z m-285.7 83.5c0 1.1-0.1 2.1-0.1 3.2 0 100 20.4 197 57.2 286.5-29.1 20.1-57.3 41.4-84.8 63.8-33.3-38.1-71.6-72.1-114.4-100.6 13.2-101.8 65.7-191.4 142.1-252.9zM148.3 568.2c26.4 20.5 50.5 43.4 72.2 68.3-16.6 14.8-32.9 30-48.8 45.7-13.3-35.8-21.3-74.1-23.4-114z m49.9 171.2c19-19.5 38.5-38.3 58.6-56.5 41.2 59.6 69.8 127.7 83 199.9-58.8-34.6-107.8-84-141.6-143.4z m205.5 173.5c-10.7-97.6-46.3-189.8-101.9-268.5 23.8-19.4 48.1-38.1 73.1-55.7 67.3 132.8 172.9 245.2 306.2 319.5-44.9 18.1-93.7 28.3-145 28.3-46.5 0.1-91-8.5-132.4-23.6z m341.6-37.8c-141.8-68.7-253.5-182.4-321.1-319.2 59.3-37.6 121.7-70.1 186.3-97.2 59.2 108.7 168.4 186 297.9 201.1-27 89.7-85.8 165.7-163.1 215.3z"  /></svg>