<?xml version="1.0" standalone="no"?><!DOCTYPE svg PUBLIC "-//W3C//DTD SVG 1.1//EN" "http://www.w3.org/Graphics/SVG/1.1/DTD/svg11.dtd"><svg class="icon" width="200px" height="185.00px" viewBox="0 0 1107 1024" version="1.1" xmlns="http://www.w3.org/2000/svg"><path d="M870.363444 1024c-80.385651 0-146.590049-33.46776-181.721742-55.716572a22.072334 22.072334 0 0 1-3.781668-3.03794L47.66162 328.047074a22.059729 22.059729 0 0 1-4.953985-23.610213c3.239629-8.307064 33.102199-83.196691 84.457247-156.586257 29.761725-42.468129 61.162173-76.364478 93.281138-100.731024C261.704016 15.857794 304.5251 0 347.762169 0h0.768939a185.705099 185.705099 0 0 1 59.548662 10.323953 22.059729 22.059729 0 0 1 14.849348 22.31184c-2.521112 38.371322 6.819608 76.137578 26.320408 106.340498 18.530172 28.702858 44.825369 48.670064 74.03245 56.220794 50.296181 13.008937 95.335845-14.118226 110.664204-24.933796 31.513898-35.761972 72.343305-50.787798 104.626142-38.333506a67.011153 67.011153 0 0 1 25.639707 17.962922 22.059729 22.059729 0 0 1 5.496024 17.723416c-9.088608 67.490164-10.147475 170.780117 36.354433 279.553488a513.878228 513.878228 0 0 0 75.545117 124.126942c12.51732 6.781791 24.908585 14.130832 36.909077 21.883251 31.854248 20.584878 80.007485 51.682793 119.122535 90.83566 49.161681 49.161681 72.658444 99.873846 69.847404 150.686855-1.941256 35.219933-16.160327 69.393604-42.228624 101.588202a254.25413 254.25413 0 0 1-45.380013 43.526996c-42.707635 31.249181-86.045547 37.816678-106.882537 40.968067a284.532683 284.532683 0 0 1-42.632001 3.214418z m-156.069429-91.718049c36.644361 22.828668 108.559076 57.556984 192.133934 44.888396 18.694044-2.836251 53.472782-8.105375 87.444764-32.963537 11.04247-8.080163 66.280031-51.430682 69.620504-111.949972 4.953985-89.70116-108.117882-162.775587-168.914494-202.029298-12.189576-7.878475-24.832952-15.303149-37.564566-22.072334a22.059729 22.059729 0 0 1-6.580102-5.344757 558.287614 558.287614 0 0 1-84.948864-138.308196c-47.737253-111.647438-49.312948-217.710614-41.01849-290.633774a18.807494 18.807494 0 0 0-1.789989-0.806756c-16.387227-6.30278-41.081518 9.227269-56.977128 27.883497a22.059729 22.059729 0 0 1-3.781668 3.479134c-13.866115 10.210503-57.229239 38.295689-111.47096 38.295689a152.338184 152.338184 0 0 1-38.182239-4.815323c-39.959623-10.336559-75.494694-36.972105-100.050324-75.003078-21.51769-33.329099-33.266071-73.692099-33.757688-115.252628a137.072851 137.072851 0 0 0-30.064258-3.529557c-33.505576-0.189083-67.578403 12.693798-101.184825 38.157028-28.501169 21.593323-56.725017 52.17441-83.826969 90.886082-37.602383 53.624049-63.418569 109.353226-74.095477 134.110545zM770.19967 1023.331905c-79.742768 0-139.228402-9.756703-180.801536-29.522219-6.504469-3.088362-71.095354-34.312332-73.843366-35.635916a22.08494 22.08494 0 0 1-6.000246-4.260679L6.454046 450.825221a22.059729 22.059729 0 0 1-6.302779-17.9125 320.521555 320.521555 0 0 1 44.258118-131.841544 22.072334 22.072334 0 1 1 37.816678 22.778246 276.364281 276.364281 0 0 0-36.883866 103.365585l492.877366 492.877367c13.689637 6.605313 64.69173 31.249181 70.238176 33.896349 44.611074 21.215156 119.866263 29.106236 223.673044 23.458946a22.059729 22.059729 0 1 1 2.395056 44.056429q-34.173671 1.827806-64.326169 1.827806zM733.164537 394.024571h-106.479159a22.059729 22.059729 0 0 1 0-44.119457h106.479159a22.059729 22.059729 0 0 1 0 44.119457zM757.493266 483.902208h-106.466553a22.059729 22.059729 0 0 1 0-44.119457h106.479159a22.059729 22.059729 0 0 1 0 44.119457zM846.677598 584.292882H679.918655a22.059729 22.059729 0 0 1 0-44.119457h166.746337a22.059729 22.059729 0 0 1 0 44.119457z" /></svg>